<?xml version="1.0" encoding="UTF-8"?>
<svg width="18px" height="15px" viewBox="0 0 18 15" version="1.1" xmlns="http://www.w3.org/2000/svg" xmlns:xlink="http://www.w3.org/1999/xlink">
    <!-- Generator: Sketch 50.2 (55047) - http://www.bohemiancoding.com/sketch -->
    <title>envelope (2)</title>
    <desc>Created with Sketch.</desc>
    <defs></defs>
    <g id="Page-1" stroke="none" stroke-width="1" fill="none" fill-rule="evenodd">
        <g id="UnderGram_ver.2-Design" transform="translate(-822.000000, -7881.000000)" fill="#FFFFFF" fill-rule="nonzero">
            <g id="Stacked-Group">
                <g id="Repeating-part" transform="translate(0.000000, 6664.000000)">
                    <g id="Footer" transform="translate(0.000000, 1068.000000)">
                        <g id="mail" transform="translate(822.000000, 142.000000)">
                            <g id="envelope-(2)" transform="translate(0.000000, 7.000000)">
                                <path d="M1.7276448,4.35956466 C1.95534238,4.52024816 2.64170703,4.99747851 3.78677393,5.79100942 C4.93187602,6.58454033 5.80910274,7.19553872 6.41848929,7.62403978 C6.48544054,7.67100989 6.62768116,7.77311269 6.84528151,7.93048893 C7.06291705,8.08797073 7.24375227,8.21522981 7.38764644,8.31230136 C7.53164616,8.40933773 7.70572645,8.51819579 7.91006321,8.63869961 C8.11432961,8.75909789 8.30688042,8.84966048 8.48768045,8.90961333 C8.66851567,8.97005876 8.83591139,9 8.98990278,9 L9,9 L9.0101324,9 C9.16412379,9 9.33158987,8.97002357 9.51242509,8.90961333 C9.69315477,8.84966048 9.88588148,8.75899234 10.089972,8.63869961 C10.294168,8.51805505 10.4682483,8.40930254 10.612248,8.31230136 C10.7562477,8.21522981 10.9369422,8.08797073 11.1546481,7.93048893 C11.3722133,7.77297196 11.5146298,7.67100989 11.5815811,7.62403978 C12.1975466,7.19553872 13.7646562,6.1072748 16.2824172,4.35935356 C16.7712352,4.01796709 17.1796273,3.60603751 17.507699,3.12384627 C17.8360169,2.64186614 18,2.13624263 18,1.6072572 C18,1.16521046 17.840872,0.786810841 17.5227569,0.472093541 C17.2046769,0.157305874 16.8279485,0 16.3928182,0 L1.60707626,0 C1.0914848,0 0.694702771,0.174088452 0.416800554,0.522265355 C0.138933518,0.870512625 0,1.30580412 0,1.82810466 C0,2.2499912 0.184212687,2.7071669 0.55246215,3.19935028 C0.920676432,3.69156884 1.31253298,4.07834215 1.7276448,4.35956466 Z" id="Shape"></path>
                                <path d="M16.9953814,5.675438 C14.7991877,7.1646131 13.1315666,8.32194792 11.9933272,9.14719575 C11.6116389,9.42884584 11.3020032,9.64870985 11.0642089,9.80625909 C10.8264146,9.96391406 10.5101646,10.1249174 10.1150017,10.2891986 C9.71997959,10.4537265 9.3518364,10.5357438 9.01025552,10.5357438 L9.00001759,10.5357438 L8.98992039,10.5357438 C8.64840988,10.5357438 8.28005559,10.4537265 7.88503343,10.2891986 C7.49001128,10.1249174 7.17355026,9.96391406 6.9358263,9.80625909 C6.69817269,9.64870985 6.38843142,9.42884584 6.00677838,9.14719575 C5.10270959,8.48309224 3.438677,7.32568693 1.01461025,5.675438 C0.632816485,5.42068054 0.29464825,5.12866815 0,4.8 L0,12.7897199 C0,13.2327611 0.157298188,13.6116194 0.472070473,13.9269293 C0.786772395,14.242345 1.1651887,14.4 1.60717867,14.4 L16.3929269,14.4 C16.8348113,14.4 17.2131924,14.242345 17.5279295,13.9269293 C17.8427722,13.6115137 18,13.2327963 18,12.7897199 L18,4.8 C17.7120011,5.12186568 17.3772807,5.41387808 16.9953814,5.675438 Z" id="Shape"></path>
                            </g>
                        </g>
                    </g>
                </g>
            </g>
        </g>
    </g>
</svg>