<?xml version="1.0" encoding="UTF-8"?>
<svg width="18px" height="18px" viewBox="0 0 18 18" version="1.1" xmlns="http://www.w3.org/2000/svg" xmlns:xlink="http://www.w3.org/1999/xlink">
    <!-- Generator: Sketch 50.2 (55047) - http://www.bohemiancoding.com/sketch -->
    <title>facebook-logo</title>
    <desc>Created with Sketch.</desc>
    <defs></defs>
    <g id="Page-1" stroke="none" stroke-width="1" fill="none" fill-rule="evenodd">
        <g id="UnderGram_ver.2-Design" transform="translate(-822.000000, -7915.000000)" fill="#FFFFFF" fill-rule="nonzero">
            <g id="Stacked-Group">
                <g id="Repeating-part" transform="translate(0.000000, 6664.000000)">
                    <g id="Footer" transform="translate(0.000000, 1068.000000)">
                        <g id="face" transform="translate(822.000000, 178.000000)">
                            <g id="facebook-logo" transform="translate(0.000000, 5.000000)">
                                <path d="M18,3.0002 C18,1.4238 16.5768,0 15,0 L3,0 C1.4232,0 0,1.4238 0,3.0002 L0,14.9998 C0,16.5762 1.4232,18 3.0002,18 L9,18 L9,11.2 L6.8,11.2 L6.8,8.2 L9,8.2 L9,7.0312 C9,5.0154 10.5136,3.2 12.375,3.2 L14.8,3.2 L14.8,6.2 L12.375,6.2 C12.1096,6.2 11.8,6.5222 11.8,7.0048 L11.8,8.2 L14.8,8.2 L14.8,11.2 L11.8,11.2 L11.8,18 L15,18 C16.5768,18 18,16.5762 18,14.9998 L18,3.0002 Z" id="Facebook__x28_alt_x29_"></path>
                            </g>
                        </g>
                    </g>
                </g>
            </g>
        </g>
    </g>
</svg>