<?xml version="1.0" encoding="UTF-8"?>
<svg width="65px" height="79px" viewBox="0 0 65 79" version="1.1" xmlns="http://www.w3.org/2000/svg" xmlns:xlink="http://www.w3.org/1999/xlink">
    <!-- Generator: Sketch 50.2 (55047) - http://www.bohemiancoding.com/sketch -->
    <title>Scratch Protection</title>
    <desc>Created with Sketch.</desc>
    <defs></defs>
    <g id="Page-1" stroke="none" stroke-width="1" fill="none" fill-rule="evenodd">
        <g id="UnderGram_ver.2-Design" transform="translate(-1163.000000, -3436.000000)">
            <g id="Stacked-Group">
                <g id="Advanced-Optical-Technology" transform="translate(0.000000, 3223.000000)">
                    <g id="4" transform="translate(1085.000000, 204.000000)">
                        <g id="Scratch-Protection" transform="translate(62.000000, 0.000000)">
                            <rect id="Cell" x="0" y="0" width="96" height="96"></rect>
                            <path d="M41.5860025,34.2958772 C41.3103595,34.2792777 41.1003632,34.0423683 41.1169628,33.7667252 C41.1335624,33.4910822 41.3704718,33.281086 41.6461148,33.2976856 C50.2663585,33.8168071 57.3966048,37.5908172 63.0064163,44.5995517 C63.178974,44.8151403 63.1440906,45.129795 62.928502,45.3023528 C62.7129134,45.4749105 62.3982587,45.4400271 62.2257009,45.2244385 C56.7905679,38.4339421 49.9208142,34.7978097 41.5860025,34.2958772 Z M33.9699438,51.4990958 C33.6943008,51.4824963 33.4843046,51.2455869 33.5009042,50.9699438 C33.5175037,50.6943008 33.7544131,50.4843046 34.0300562,50.5009042 C42.340312,51.0013579 49.2145973,54.6398888 54.6224749,61.3963331 C54.7950326,61.6119217 54.7601492,61.9265764 54.5445606,62.0991342 C54.328972,62.2716919 54.0143173,62.2368085 53.8417596,62.0212199 C48.6085604,55.4830137 41.9947676,51.9823604 33.9699438,51.4990958 Z M31.9699438,44.4990958 C31.6943008,44.4824963 31.4843046,44.2455869 31.5009042,43.9699438 C31.5175037,43.6943008 31.7544131,43.4843046 32.0300562,43.5009042 C43.4761425,44.1902014 52.9397221,49.1992352 60.3903577,58.5078415 C60.5629154,58.7234301 60.528032,59.0380849 60.3124434,59.2106426 C60.0968548,59.3832003 59.7822001,59.3483169 59.6096423,59.1327283 C52.3336852,50.0423601 43.1305981,45.1712039 31.9699438,44.4990958 Z M29.9699438,37.4990958 C29.6943008,37.4824963 29.4843046,37.2455869 29.5009042,36.9699438 C29.5175037,36.6943008 29.7544131,36.4843046 30.0300562,36.5009042 C45.4099299,37.4270988 58.1216866,44.1553794 68.134889,56.6655819 C68.3074468,56.8811705 68.2725634,57.1958253 68.0569748,57.368383 C67.8413862,57.5409407 67.5267314,57.5060573 67.3541737,57.2904687 C57.5156497,44.9985043 45.0643855,38.4081014 29.9699438,37.4990958 Z" id="Scratches" fill="#979797" fill-rule="nonzero"></path>
                            <rect id="Hide" fill="#050916" transform="translate(47.700195, 48.500000) rotate(45.000000) translate(-47.700195, -48.500000) " x="43.4575546" y="19.508622" width="8.48528137" height="57.9827561"></rect>
                            <path d="M17,25.7661356 L17,47.6586458 C24.7479218,69.3506376 34.9816788,81.7558779 48.2643176,86.9289513 C61.7913527,81.6733957 72.3100353,69.7516855 79.9765119,48.326787 L79.9765119,25.7661356 C69.7575151,25.4866324 59.0703645,20.8974279 48.2644954,10.4019881 C37.4688677,20.8993512 27.2127816,25.4866101 17,25.7661356 Z M48.2641009,9 C60.9803508,21.6265297 72.2518232,24.7797945 80.8721362,24.7797945 L80.8721362,48.326787 C72.5344702,71.7172165 61.2629978,83.0826404 48.2641009,88 C35.2652041,83.0826404 24.3234485,71.2219975 16,47.8315679 L16,24.7797945 C24.620313,24.7797945 35.5620685,21.6265297 48.2641009,9 Z M32.5581642,68.1597042 C37.8605677,62.7362728 63.2203102,37.3183238 71.3051432,29.2898319 C72.3439023,29.4323045 73.9595326,29.5189157 74.9893903,29.5526866 L75.071117,48.2422558 C68.6559316,66.1570979 59.5515357,76.2117706 48.2671411,80.6188385 C42.3073256,78.2848494 37.1122422,74.2240512 32.5581642,68.1597042 Z M70.9551111,28.2282921 C65.0569609,34.0797455 35.520969,63.6419556 31.2497003,68.0708318 C36.2925771,75.0210066 41.9947377,79.3175578 48.2668937,81.690255 C59.1893418,77.5583963 68.9958077,67.8962893 76.0016117,48.2422558 L76.0016117,28.5688691 C74.591218,28.5688691 72.5110904,28.4684118 70.9551111,28.2282921 Z M48.2673793,16.7102074 C53.0182826,21.3029079 57.6977505,24.5667907 62.3324335,26.6591902 C62.6671504,26.8103033 64.5222048,27.6854367 64.8564646,27.8243889 C58.494049,34.4736646 36.8370344,55.154698 29.0316811,62.759487 C28.9692249,62.6500576 28.4665563,61.863925 28.4040603,61.7537969 C26.1248762,57.7375023 23.8250395,53.2516827 21.9257945,47.9383435 L22.0841837,29.5526866 C30.6201824,29.2757941 39.2634566,25.428645 48.2673793,16.7102074 Z M48.2668937,15.309745 C37.5938888,25.919308 28.3999734,28.5688691 21.1566725,28.5688691 L21.1566725,47.9383435 C23.2945695,53.9462296 25.6380434,59.0488527 28.1736256,63.356292 C28.2394207,63.4680645 28.7455334,64.2556592 28.811587,64.3663628 C36.4375169,57.0041408 61.8079842,32.5543536 66.6048876,27.4342672 C66.2531135,27.3055355 64.3779829,26.4388758 64.0206693,26.2942137 C59.2379099,24.3578635 53.9616986,20.9643699 48.2668937,15.309745 Z" id="Shield" fill="#E7CE8E" fill-rule="nonzero"></path>
                        </g>
                    </g>
                </g>
            </g>
        </g>
    </g>
</svg>