<?xml version="1.0" encoding="UTF-8"?>
<svg width="90px" height="71px" viewBox="0 0 90 71" version="1.1" xmlns="http://www.w3.org/2000/svg" xmlns:xlink="http://www.w3.org/1999/xlink">
    <!-- Generator: Sketch 50.2 (55047) - http://www.bohemiancoding.com/sketch -->
    <title>UV Protection</title>
    <desc>Created with Sketch.</desc>
    <defs></defs>
    <g id="Page-1" stroke="none" stroke-width="1" fill="none" fill-rule="evenodd">
        <g id="UnderGram_ver.2-Design" transform="translate(-683.000000, -3431.000000)">
            <g id="Stacked-Group">
                <g id="Advanced-Optical-Technology" transform="translate(0.000000, 3223.000000)">
                    <g id="1" transform="translate(649.000000, 195.000000)">
                        <g id="UV-Protection" transform="translate(31.000000, 0.000000)">
                            <rect id="Cell" x="0" y="0" width="96" height="96"></rect>
                            <path d="M88.4508921,82.6951411 C89.6089982,83.3514215 91.0616633,82.9127876 91.7006858,81.7069106 C92.3448062,80.4914139 91.9139209,78.96542 90.7460723,78.3036185 C62.5438691,62.3218743 33.9758611,61.9090474 5.31435507,77.0689035 C4.12927229,77.6957263 3.6566292,79.2079712 4.26705606,80.4421142 C4.8728452,81.6668808 6.31328272,82.1483113 7.48883093,81.5265316 C34.7409361,67.1121462 61.6375208,67.5004261 88.4508921,82.6951411 Z M3.37070585,80.8854553 C2.52197867,79.1695237 3.17909666,77.0670424 4.84679883,76.184949 C33.8098877,60.8655774 62.7400259,61.2836373 91.2390994,77.4336133 C92.8812807,78.3642115 93.4800519,80.4847789 92.5842878,82.1751437 C91.683426,83.8751283 89.6097887,84.5012655 87.9578649,83.5651463 C61.4413688,68.5386658 34.9069143,68.1556137 7.95638717,82.4104862 C6.27915042,83.2976227 4.22407075,82.6107633 3.37070585,80.8854553 Z" id="Lens" fill="#E7CE8E" fill-rule="nonzero"></path>
                            <g id="Arrows-" transform="translate(12.000000, 32.000000)" fill-rule="nonzero">
                                <path d="M26.3862386,0.843863251 L28.2163115,1.65060551 L27.0061981,4.3957149 L25.1761252,3.58897265 L26.3862386,0.843863251 Z M23.9660118,6.33408204 L25.7960847,7.1408243 L24.5859714,9.88593369 L22.7558984,9.07919144 L23.9660118,6.33408204 Z M21.545785,11.8243008 L23.375858,12.6310431 L22.1657446,15.3761525 L20.3356716,14.5694102 L21.545785,11.8243008 Z M19.1255583,17.3145196 L20.9556312,18.1212619 L19.7455178,20.8663713 L17.9154449,20.059629 L19.1255583,17.3145196 Z M16.7053315,22.8047384 L18.5354044,23.6114807 L17.325291,26.3565901 L15.4952181,25.5498478 L16.7053315,22.8047384 Z M14.2851047,28.2949572 L16.1151776,29.1016995 L14.9050643,31.8468089 L13.0749913,31.0400666 L14.2851047,28.2949572 Z M13.5346887,30.9345328 L11.7821955,31.8982587 L10.3366067,29.269519 L12.0890999,28.3057931 L13.5346887,30.9345328 Z M10.643511,25.6770533 L8.89101784,26.6407792 L7.44542898,24.0120394 L9.19792217,23.0483135 L10.643511,25.6770533 Z M56.2708142,30.5174966 L57.4870677,28.3057931 L59.2395609,29.269519 L57.7939721,31.8982587 L56.3525385,31.1055899 L54.6711033,31.8468089 L53.46099,29.1016995 L55.2910629,28.2949572 L56.2708142,30.5174966 Z M7.75233332,20.4195737 L5.99984013,21.3832996 L4.55425128,18.7545598 L6.30674447,17.7908339 L7.75233332,20.4195737 Z M0.35985609,9.41997892 L7.41085255,13.597502 L0.35985609,17.7750251 L0.35985609,9.41997892 Z M1.35985609,11.1747872 L1.35985609,16.0202169 L5.44901448,13.597502 L1.35985609,11.1747872 Z M43.189929,0.843863251 L44.4000424,3.58897265 L42.5699695,4.3957149 L41.3598561,1.65060551 L43.189929,0.843863251 Z M45.6101558,6.33408204 L46.8202692,9.07919144 L44.9901963,9.88593369 L43.7800829,7.1408243 L45.6101558,6.33408204 Z M48.0303826,11.8243008 L49.240496,14.5694102 L47.410423,15.3761525 L46.2003096,12.6310431 L48.0303826,11.8243008 Z M50.4506093,17.3145196 L51.6607227,20.059629 L49.8306498,20.8663713 L48.6205364,18.1212619 L50.4506093,17.3145196 Z M52.8708361,22.8047384 L54.0809495,25.5498478 L52.2508766,26.3565901 L51.0407632,23.6114807 L52.8708361,22.8047384 Z M56.2708142,30.5174966 L56.0414789,30.9345328 L56.3525385,31.1055899 L56.5011763,31.0400666 L56.2708142,30.5174966 Z M58.9326566,25.6770533 L60.3782454,23.0483135 L62.1307386,24.0120394 L60.6851498,26.6407792 L58.9326566,25.6770533 Z M61.8238343,20.4195737 L63.2694231,17.7908339 L65.0219163,18.7545598 L63.5763275,21.3832996 L61.8238343,20.4195737 Z M69.2163115,9.41997892 L69.2163115,17.7750251 L62.1653151,13.597502 L69.2163115,9.41997892 Z M68.2163115,16.0202169 L68.2163115,11.1747872 L64.1271531,13.597502 L68.2163115,16.0202169 Z" id="Combined-Shape" fill="#9C9C9C"></path>
                                <path d="M31.6143029,4.04571124 L33.5282552,4.62604443 L32.9479221,6.53999672 L31.0339698,5.95966354 L31.6143029,4.04571124 Z M30.4536366,7.87361584 L32.3675889,8.45394902 L31.7872557,10.3679013 L29.8733034,9.78756813 L30.4536366,7.87361584 Z M29.2929702,11.7015204 L31.2069225,12.2818536 L30.6265893,14.1958059 L28.712637,13.6154727 L29.2929702,11.7015204 Z M28.1323038,15.529425 L30.0462561,16.1097582 L29.465923,18.0237105 L27.5519707,17.4433773 L28.1323038,15.529425 Z M26.9716375,19.3573296 L28.8855898,19.9376628 L28.3052566,21.8516151 L26.3913043,21.2712819 L26.9716375,19.3573296 Z M25.8109711,23.1852342 L27.7249234,23.7655674 L27.1445902,25.6795197 L25.2306379,25.0991865 L25.8109711,23.1852342 Z M24.6503047,27.0131388 L26.564257,27.593472 L25.9839238,29.5074243 L24.0699715,28.9270911 L24.6503047,27.0131388 Z M25.4691645,29.1399797 L23.5250387,29.6094208 L23.0555976,27.665295 L24.9997234,27.1958539 L25.4691645,29.1399797 Z M45.0333004,27.2967486 L46.5609512,27.6774743 L46.0772992,29.6181136 L44.5247439,29.2311811 L43.6136874,29.5074243 L43.0333542,27.593472 L44.9473065,27.0131388 L45.0333004,27.2967486 Z M24.5302824,25.2517281 L22.5861566,25.7211692 L22.1167155,23.7770434 L24.0608413,23.3076023 L24.5302824,25.2517281 Z M37.9833083,4.04571124 L38.5636415,5.95966354 L36.6496892,6.53999672 L36.069356,4.62604443 L37.9833083,4.04571124 Z M39.1439747,7.87361584 L39.7243078,9.78756813 L37.8103555,10.3679013 L37.2300224,8.45394902 L39.1439747,7.87361584 Z M40.304641,11.7015204 L40.8849742,13.6154727 L38.9710219,14.1958059 L38.3906887,12.2818536 L40.304641,11.7015204 Z M41.4653074,15.529425 L42.0456406,17.4433773 L40.1316883,18.0237105 L39.5513551,16.1097582 L41.4653074,15.529425 Z M42.6259738,19.3573296 L43.2063069,21.2712819 L41.2923546,21.8516151 L40.7120215,19.9376628 L42.6259738,19.3573296 Z M43.7866401,23.1852342 L44.3669733,25.0991865 L42.453021,25.6795197 L41.8726878,23.7655674 L43.7866401,23.1852342 Z M45.0333004,27.2967486 L44.620312,27.1938223 L44.13666,29.1344616 L44.5247439,29.2311811 L45.5276397,28.9270911 L45.0333004,27.2967486 Z M45.103964,25.2531831 L45.587616,23.3125438 L47.5282552,23.7961958 L47.0446032,25.7368351 L45.103964,25.2531831 Z" id="Combined-Shape" fill="#AAAAAA" opacity="0.400000006"></path>
                            </g>
                            <path d="M40.8993711,27.9944134 C41.6478025,27.9944134 42.3173451,27.8621987 42.9080189,27.5977654 C43.4986927,27.333332 43.9994738,26.9664828 44.4103774,26.4972067 C44.8212809,26.0279306 45.134957,25.4748635 45.3514151,24.8379888 C45.5678732,24.2011141 45.6761006,23.5139702 45.6761006,22.7765363 L45.6761006,13 L46.7987421,13 L46.7987421,22.7765363 C46.7987421,23.6480491 46.6629993,24.4618212 46.3915094,25.2178771 C46.1200196,25.973933 45.7293002,26.6331443 45.2193396,27.1955307 C44.709379,27.7579172 44.0893642,28.1992535 43.3592767,28.5195531 C42.6291892,28.8398526 41.8092289,29 40.8993711,29 C39.9895133,29 39.1695529,28.8398526 38.4394654,28.5195531 C37.7093779,28.1992535 37.0893631,27.7579172 36.5794025,27.1955307 C36.0694419,26.6331443 35.6787225,25.973933 35.4072327,25.2178771 C35.1357429,24.4618212 35,23.6480491 35,22.7765363 L35,13 L36.1336478,13 L36.1336478,22.7653631 C36.1336478,23.502797 36.2418752,24.1899409 36.4583333,24.8268156 C36.6747914,25.4636903 36.9866332,26.0167574 37.3938679,26.4860335 C37.8011027,26.9553096 38.3000495,27.324021 38.8907233,27.5921788 C39.4813971,27.8603365 40.1509397,27.9944134 40.8993711,27.9944134 Z M49.1430818,13 L50.0345912,13 C50.1373171,13 50.2216978,13.0279327 50.2877358,13.0837989 C50.3537739,13.1396651 50.4051361,13.2122901 50.4418239,13.301676 L55.7468553,26.4189944 C55.886269,26.7616404 55.9999996,27.1266275 56.0880503,27.5139665 C56.1687635,27.1117298 56.2751566,26.7467428 56.4072327,26.4189944 L61.7012579,13.301676 C61.7379457,13.2197389 61.7911422,13.1489761 61.8608491,13.0893855 C61.9305559,13.0297949 62.016771,13 62.1194969,13 L63,13 L56.572327,28.8100559 L55.5707547,28.8100559 L49.1430818,13 Z" id="UV" fill="#AAAAAA"></path>
                        </g>
                    </g>
                </g>
            </g>
        </g>
    </g>
</svg>